<!-- icon666.com - MILLIONS vector ICONS FREE --><svg id="Capa_1" enable-background="new 0 0 495.922 495.922" viewBox="0 0 495.922 495.922" xmlns="http://www.w3.org/2000/svg"><g><g id="Layer_1_11_"><g><path d="m247.958 103.963c-27.999-.018-54.986 10.463-75.633 29.375-3.314 2.922-3.632 7.977-.709 11.291s7.977 3.632 11.291.709c.07-.062.139-.125.207-.189 39.118-35.803 99.854-33.115 135.657 6.004 16.198 17.698 25.183 40.818 25.187 64.809 0 82.984-76.668 144.133-96 158.218-19.332-14.086-96-75.234-96-158.218.003-16.734 4.38-33.176 12.699-47.695 2.201-3.832.878-8.721-2.953-10.922s-8.721-.878-10.922 2.953c-9.71 16.945-14.82 36.134-14.824 55.664 0 103.216 103.226 171.825 107.625 174.695 2.678 1.668 6.072 1.668 8.75 0 4.394-2.867 107.625-71.477 107.625-174.695-.069-61.826-50.173-111.929-112-111.999z"></path></g><g><path d="m311.958 215.963c0-35.346-28.654-64-64-64s-64 28.654-64 64 28.654 64 64 64c35.33-.04 63.96-28.67 64-64zm-112 0c0-26.51 21.49-48 48-48s48 21.49 48 48-21.49 48-48 48c-26.497-.029-47.97-21.502-48-48z"></path></g></g></g><g id="Layer_2_29_"><g><path d="m247.958 495.922c-58.455 0-116.91-1.994-174.956-5.981-35.735-2.476-64.545-31.286-67.02-67.017-7.976-116.097-7.976-233.825 0-349.918 2.473-35.736 31.282-64.548 67.014-67.024 116.099-7.976 233.827-7.977 349.919 0 35.739 2.473 64.552 31.286 67.024 67.021 7.977 116.096 7.977 233.823.001 349.915-2.476 35.739-31.289 64.55-67.023 67.021-.001.001-.002.001-.004.001-58.046 3.987-116.5 5.982-174.955 5.982zm.001-479.922c-58.095 0-116.171 1.981-173.861 5.944-27.806 1.927-50.229 24.352-52.153 52.162-7.925 115.361-7.925 232.352 0 347.717 1.926 27.805 24.35 50.229 52.159 52.155 115.36 7.926 232.35 7.927 347.714-.001l-.004.001c27.812-1.924 50.238-24.349 52.165-52.161 7.925-115.36 7.925-232.349-.001-347.713-1.924-27.81-24.35-50.235-52.163-52.16-57.674-3.962-115.775-5.944-173.856-5.944z"></path></g></g></svg>